<?xml version="1.0" encoding="iso-8859-1"?>
<!-- Generator: Adobe Illustrator 24.1.2, SVG Export Plug-In . SVG Version: 6.00 Build 0)  -->
<svg version="1.1" id="Layer_1" xmlns="http://www.w3.org/2000/svg" xmlns:xlink="http://www.w3.org/1999/xlink" x="0px" y="0px"
	 width="190.026px" height="246.23px" viewBox="0 0 190.026 246.23" enable-background="new 0 0 190.026 246.23"
	 xml:space="preserve">
<g>
	<path fill="#D5EDCC" d="M70.341,167.105c-8.396,9.855-9.84,22.94-7.826,27.336c0.831,1.813,2.584,3.322,4.578,3.343
		c4.2,0.044,14.405-9.828,15.015-26.648c0.098-2.713,0.636-11.637-2.638-12.831C76.467,157.21,72.164,164.965,70.341,167.105z"/>
	<path fill="#D5EDCC" d="M126.916,179.056c-14.204-0.257-26.307,7.63-28.633,12.4c-0.959,1.967-1.018,4.504,0.353,6.21
		c2.887,3.593,18.366,5.372,33.055-5.823c2.369-1.805,10.312-7.564,9.045-11.172C139.575,177.361,130.002,179.111,126.916,179.056z"
		/>
	<path fill="#FFD9DC" d="M127.794,139.063c11.268,24.611,45.6,16.267,40.012-14.749c-6.444-35.767-34.709-48.205-46.182-18.792
		C117.921,115.016,123.554,129.802,127.794,139.063z"/>
	<path fill="#FFD9DC" d="M89.877,59.736c26.474,16.577,34.79-34.794,20.022-46.182c-2.901-2.237-6.714-2.806-10.343-3.3
		C71.24,6.396,70.657,47.7,89.877,59.736z"/>
	<path fill="#FFD9DC" d="M14.262,72.117c-1.081,13.777,14.891,25.132,23.525,25.707c11.936,0.795,24.945-17.582,27.611-28.147
		c1.731-6.856,0.818-14.657-3.691-20.104C46.264,30.918,15.747,53.187,14.262,72.117z"/>
	<g>
		<path d="M153.247,125.182c4.365-3.323,11.933-10.321,14.306-14.32c2.643-4.452-0.141-7.825-5.142-6.642
			c-3.898,0.922-12.76,7.297-15.723,9.571c-12.428,9.541-8.549,10.218-2.281-4.305c1.131-2.62,3.289-8.086,3.782-10.893
			c1.249-7.123-4.018-11.593-14.193-3.733c-10.306,7.959-13.346,21.685-12.064,34.804c0.102,1.044,1.747,1.053,1.643,0
			c-2.749-28.154,15.7-38.604,20.898-37.077c3.565,1.047,2.092,6.284,1.086,9.305c-3.244,9.753-8.151,18.655-14.362,26.444
			c-0.646,0.809,0.455,1.972,1.162,1.162c7.727-8.865,16.908-16.418,27.128-22.245c5.997-3.42,8.71-1.023,6.825,2.469
			c-1.509,2.793-9.918,12.053-20.293,18.441c-2.518,1.196-4.971,2.529-7.341,3.997c-0.91,0.562-0.117,1.87,0.83,1.418
			c7.047-3.364,7.137-4.674,16.86-7.708c5.134-1.603,12.551-3.141,17.866-3.229c4.03-0.067,4.574,2.104,2.169,4.677
			c-3.173,3.397-11.11,5.941-15.578,7.33c-11.926,3.704-20.622,4.222-21.928,4.442c-0.904,0.153-0.703,1.706,0.219,1.614
			c13.241-1.323,16.148,3.629,12.436,6.209c-1.933,1.341-5.805,0.828-9.016,0.355c-3.155-0.465-6.375-1.333-8.682-3.665
			c-0.744-0.753-1.906,0.409-1.162,1.162c3.515,3.555,8.981,4.227,14.027,4.587c8.896,0.634,11.489-7.949,1.836-9.987
			c7.142-1.321,23.458-5.514,28.625-10.492c3.494-3.367,2.684-6.572-0.383-7.555C177.914,121.319,168.722,119.709,153.247,125.182z"
			/>
		<path d="M149.803,172.441c4.404-6.031,9.721-1.353,5.216-0.389C155.119,172.052,153.41,172.475,149.803,172.441z M94.916,210.076
			c0.863,0.204-3.204,3.566-9.721,4.275C90.912,208.619,95.748,210.076,94.916,210.076z M79.042,148.413
			c1.015-3.992,5.271-2.761-0.118,6.533C78.028,149.769,79.35,148.413,79.042,148.413z M155.101,167.805
			c-3.394-0.501-5.384,2.053-7.303,4.598c-7.464-0.202-18.405-1.41-29.158-0.386c-29.35,2.791-28.436,21.72,3.139-26.226
			c2.174,0.434,7.042-3.596,8.597-5.175c2.135-2.168-0.646-3.54-2.873-5.308c-0.82-0.651-1.99,0.505-1.162,1.162
			c0.937,0.743,1.954,1.43,2.815,2.261c0.097,0.094,0.375,0.48,0.348,0.343c0.013,0.071,0.061-0.005-0.033,0.081
			c-0.092,0.085-0.168,0.207-0.258,0.299c-1.096,1.124-5.665,4.888-7.159,4.727c-0.856-0.094-1.663-6.533,2.661-10.459
			c0.786-0.713-0.38-1.872-1.162-1.162c-4.048,3.675-4.482,9.828-3.07,12.214c-12.111,18.42-26.4,35.975-43.04,52.296
			c0.89-1.97,1.626-4.017,2.299-6.061c3.064-9.312,5.201-15.946,1.171-28.811c-2.143-6.837-1.709-3.126,1.202-9.958
			c0.729-1.712,1.59-3.923,0.92-5.787c-1.464-4.072-8.335-1.752-5.364,10.577c-2.69,4.298-5.869,8.197-9.207,12.022
			c-13.757,15.764-10.387,28.025-4.933,28.967c2.884,0.498,8.175-5.221,9.957-7.921c3.285-4.98,3.363-10.395,1.365-12.401
			c-1.851-1.859-6.5-1.26-9.061,4.542c-3.78,8.567,2.801,9.041,3.045,6.041c0.086-1.053-1.558-1.049-1.643,0
			c-0.023,0.278-0.609-0.202-0.671-0.322c-0.247-0.485-0.208-1.144-0.17-1.666c0.469-6.452,7.719-11.353,8.159-4.976
			c0.511,7.415-8.022,14.65-10.498,15.113c-1.249,0.233-4.025-2.289-3.581-7.783c0.89-11.006,8.826-17.603,13.364-23.322
			c5.275-6.648,4.291-6.654,4.723-5.256c2.968,9.611,4.374,15.106,1.207,25.467c-1.617,5.292-3.177,10.794-6.275,15.379
			C60.593,213.1,46.651,224.329,31.129,234.67c-0.876,0.583-0.054,2.008,0.829,1.42c7.966-5.307,15.692-10.973,23.149-16.972
			c7.248-5.361,17.197-2.899,26.279-2.924c-3.03,3.737-6.294,8.559-11.006,11.502c-10.615,6.633-17.064-1.011-9.205-5.888
			c1.429-0.887,3.461-2.263,5.214-1.711c2.712,0.856,1.464,5.317-3.002,5.021c-1.056-0.071-1.052,1.573,0,1.643
			c8.526,0.565,7.986-11.941-1.306-7.33c-12.464,6.186-3.733,17.984,9.39,9.519c5.351-3.453,8.864-9.059,12.082-12.812
			c11.586-0.597,16.565-7.529,10.874-7.829c-4.565-0.24-8.602,2.802-11.625,6.211c-7.387,0.265-15.351-1.56-22.573,0.389
			c11.819-9.916,22.847-20.614,33.125-32.136c2.295-0.738,8.827-10.646,40.921-9.389c4.069,0.159,8.148,0.514,12.226,0.647
			c-5.752,6.843-19.642,17.544-29.482,19.792c-8.395,1.918-14.46-1.801-15.275-3.729c-1.253-2.965,2.359-6.83,5.971-8.684
			c5.982-3.07,14.495-1.486,12.633,1.676c-3.086,5.239-11.604,6.717-11.596,5.4c0.991-0.261,0.555-1.813-0.466-1.576
			c-1.059,0.245-1.471,1.591-1.002,2.493c1.358,2.61,9.359,0.623,13.404-4.03c6.838-7.867-11.35-10.921-18.883-1.279
			c-7.392,9.458,7.869,15.069,20.918,9.578c6.878-2.896,20.102-12.078,25.863-19.596c4.252,0.046,7.185,0.005,8.879-1.274
			C159.829,171.022,157.525,167.805,155.101,167.805z"/>
		<path d="M108.469,60.832c1.3,0.911,1.655,4.716,1.748,6.302c0.62,10.599-8.973-2.242-7.679-3.747
			C102.639,63.388,101.423,63.766,108.469,60.832z M146.342,55.052c1.05,1.605,2.307,3.673,4.01,4.841
			c-6.245,6.424-9.943,4.499-7.621-0.125C142.852,59.768,142.011,60.145,146.342,55.052z M158.316,45.282
			c-4.769,4.581,0.301,8.217-6.365,13.861c-0.367-0.52-0.973-0.708-1.852-1.688c-1.52-1.692-2.593-3.883-3.047-4.138
			C147.334,48.744,153.8,46.238,158.316,45.282L158.316,45.282z M164.347,49.959c-0.866,2.882-5.262,7.803-9.805,8.958
			c2.733-3.051,2.827-5.249,2.966-7.983c0.217-4.237,2.93-5.948,7.021-6.844C164.506,44.866,164.834,49.959,164.347,49.959z
			 M81.982,32.653c0.844,9.538,2.567,15.536,17.414,28.42c0.796,0.69,1.963-0.468,1.162-1.162
			c-9.861-8.557-15.696-14.649-16.839-26.24c10.889,5.165,26.071-5.221,23.406-11.479c-2.206-5.179-11.433-4.135-16.247-1.531
			c-6.649,3.596-4.598,10.558,3.466,7.164c1.559-0.656,2.953-1.619,4.123-2.841c0.731-0.764-0.429-1.928-1.162-1.162
			c-2.964,3.098-8.431,4.507-8.728,2.045c-0.173-1.433,1.241-2.606,2.301-3.295c7.234-4.704,19.214-2.425,13.287,4.511
			C93.95,39.035,73.76,32.466,81.727,20.753c4.63-6.806,16.477-11.091,24.049-6.195c8.532,5.517,12.078,31.518,3.961,45.214
			c-1.201-1.152-1.617-0.57-6.21,1.362c-1.548,0.651-3.792,1.096-2.129,4.836c0.982,2.21,3.621,5.747,6.021,6.688
			c1.209,0.474,0.956,0.035,1.008,0.4c4.826,34.084-2.516,59.98-21.348,88.829c-0.58,0.887,0.843,1.712,1.419,0.828
			c13.909-21.307,19.742-38.357,21.969-54.686c2.436-0.52,7.405-21.989,31.496-42.783c3.06,1.892,9.001-3.187,9.879-4.476
			c2.868,1.106,11.609-3.542,13.977-10.046c0.884-2.425-0.03-5.001,0.421-7.476c0.11-0.61-0.366-1.174-1.011-1.011
			c-4.587,1.159-9.295,1.408-13.57,3.526c-6.863,3.4-6.133,7.713-6.345,7.965c-1.724,2.053-6.275,6.384-4.437,10.289
			c-13.073,11.266-21.062,22.809-28.256,36.979c-4.464,8.796,1.479,0.553-2.605-28.331c2.603-1.215,1.961-6.659,1.341-9.45
			c-0.46-2.074-0.713-1.776-0.537-2.056c8.952-14.308,5.302-41.306-3.757-47.712c-4.347-3.074-10.058-3.225-15.011-1.713
			C78.749,15.798,74.683,27.465,81.982,32.653L81.982,32.653z"/>
		<path d="M106.905,33.917c-0.38-0.975-1.969-0.551-1.585,0.437c1.856,4.762,2.386,9.948,1.45,14.978
			c-0.192,1.034,1.391,1.477,1.585,0.437C108.504,49.769,109.968,41.775,106.905,33.917z"/>
		<path d="M97.612,117.981c-2.468,3.346-5.856,10.157-11.036,10.006C87.949,122.878,92.417,118.852,97.612,117.981L97.612,117.981z
			 M65.927,85.909c0.808-1.171,1.101-3.81-0.16-6.304c-1.038-2.053-2.852-3.579-4.589-5.024c-1.491-1.24-1.258,1.792-6.771,6.916
			c-0.693,0.644-1.007,0.782-0.558,2.001c0.916,2.488,4.301,3.695,6.514,2.159c0.863-0.599,0.042-2.024-0.83-1.419
			c-1.479,1.026-3.587,0.205-4.156-1.411c2.07-1.908,3.885-4.068,5.413-6.432c8.012,6.895,1.83,8.818,3.901,10.601
			c5.386,4.636,12.363,14.583,15.994,25.494c-7.978-7.557-21.337-6.37-29.351-13.219c-0.681-0.582-1.79,0.151-1.291,0.996
			c4.789,8.098,4.699,12.211,6.307,15.597c3.326,7.006,14.327,10.071,24.498,1.253c3.323-2.881-12.828,0.314-19.291-9.113
			c-0.594-0.867-2.019-0.046-1.419,0.829c4.105,5.988,11.289,7.475,18.078,8.293c-4.439,3.257-10.348,5.149-15.569,2.675
			c-6.593-3.124-4.488-7.3-9.472-17.228c6.871,4.078,15.418,4.434,22.463,8.268c4.448,2.421,5.578,4.971,6.125,5.231
			c2.247,8.346,2.688,16.733,1.634,24.439c-0.142,1.034,1.442,1.481,1.585,0.435c0.519-3.791,0.68-7.617,0.505-11.427
			c7.439,1.211,11.132-8.117,14.558-11.954c2.698-3.022-11.101-1.7-14.761,9.011c-0.79-8.6-3.192-16.537-7.089-24.243
			c-2.366-4.679-1.13-10.356,1.584-14.599c3.207-5.012,8.11-8.896,10.159-14.419c1.547,5.022,2.872,10.352,1.763,15.531
			c-0.908,4.243-3.49,8.417-7.603,10.068c0.122-4.366,1.384-8.613,3.684-12.346c0.556-0.903-0.865-1.729-1.419-0.829
			c-2.646,4.295-4.009,9.282-3.917,14.326c0.044,2.428,6.832-0.93,9.587-7.02c3.444-7.611,0.848-15.914-1.371-22.897
			c-0.224-0.704-1.45-0.856-1.585,0c-1.548,9.835-14.204,14.831-13.742,27.275C71.103,90.784,66.029,85.909,65.927,85.909z"/>
		<path d="M53.556,86.084c0.674-0.806-0.482-1.975-1.162-1.162c-4.878,5.828-15.489,15.616-23.128,15.263
			c-8.573-0.395-10.644-14.947,12.541-22.604c0.931-0.307,0.675-1.499-0.218-1.614c-7.097-0.918-14.982-0.124-21.557-3.421
			C7.535,66.281,9.09,52.513,23.987,49.953c8.929-1.534,19.645,2.464,23.17,11.154c0.239,1.884,0.616,3.749,1.095,5.559
			c0.237,0.895,1.617,0.712,1.614-0.219c-0.007-1.996-0.4-3.937-1.107-5.753c-2.026-16.716,9.007-25.322,15.826-21.278
			c5.917,3.509,6.033,14.872,3.066,21.269c-1.625,3.503-3.91,6.665-5.869,9.982c-0.539,0.913,0.881,1.741,1.419,0.83
			c3.691-6.248,8.022-11.258,8.036-19.631c0.037-23.276-24.686-18.038-24.363,5.278c-4.519-6.574-13.313-9.765-21.359-9.034
			c-15.861,1.44-20.777,15.674-9.02,24.21c6.184,4.489,14.018,4.375,21.41,4.929c-19.486,7.724-19.173,21.455-10.901,24.185
			C37.533,104.91,53.728,86.084,53.556,86.084z"/>
		<path d="M62.123,63.853c2.032-6.19,3.424-13.894-1.684-19.046c-0.746-0.752-1.908,0.41-1.162,1.162
			c4.661,4.702,3.095,11.861,1.261,17.447C60.208,64.423,61.794,64.855,62.123,63.853L62.123,63.853z"/>
		<path d="M57.392,62.183c-0.265,1.025,1.32,1.462,1.585,0.437c0.778-3.007,0.616-6.173-0.514-9.069
			c-0.38-0.975-1.97-0.551-1.585,0.437C56.979,53.987,58.519,57.829,57.392,62.183z"/>
		<path d="M25.105,55.267c-1.053,0.052-1.059,1.696,0,1.643c6.598-0.325,11.402,4.899,14.985,9.776
			c0.62,0.844,2.046,0.025,1.419-0.829C41.609,65.857,34.554,54.802,25.105,55.267z"/>
		<path d="M30.191,63.017c-0.659-0.827-1.815,0.343-1.162,1.162c1.924,2.412,4.695,4.061,7.731,4.609
			c1.034,0.187,1.478-1.397,0.437-1.585C32.304,66.32,30.326,63.017,30.191,63.017z"/>
		<path d="M31.475,91.727c-0.881-0.59-1.705,0.833-0.829,1.419c4.714,3.159,12.79-4.347,15.949-9.101
			c0.587-0.883-0.836-1.707-1.419-0.829C45.675,83.215,36.195,94.89,31.475,91.727z"/>
		<path d="M116.832,19.34c0.935-0.042,1.022-1.209,0.582-1.649c-0.411-0.411-1.403-0.404-1.403,0.828
			C116.011,19.412,116.988,19.333,116.832,19.34z"/>
		<path d="M118.558,22.626c-1.057,0-1.058,1.643,0,1.643C119.617,24.27,119.617,22.626,118.558,22.626z"/>
		<path d="M120.283,29.035c-1.057,0-1.058,1.643,0,1.643C121.343,30.679,121.343,29.035,120.283,29.035z"/>
		<path d="M120.037,36.431c-1.057,0-1.058,1.643,0,1.643C121.096,38.074,121.096,36.431,120.037,36.431z"/>
		<path d="M119.297,44.565c-1.251,0-1.219,1.042-0.827,1.403c0.564,0.519,1.685,0.212,1.648-0.581
			C120.092,44.769,119.589,44.565,119.297,44.565z"/>
		<path d="M136.69,104.442c0.772-0.726-0.391-1.886-1.162-1.162c-5.118,4.807-8.209,11.51-8.595,18.515
			c-0.059,1.057,1.584,1.053,1.643,0C128.754,121.794,128.288,112.334,136.69,104.442z"/>
		<path d="M177.178,137.398c-2.447-0.431-4.894-0.863-7.341-1.293c-1.034-0.182-1.479,1.402-0.437,1.584
			c2.447,0.432,4.894,0.863,7.341,1.293C177.867,139.181,178.144,137.398,177.178,137.398z"/>
		<path d="M166.109,141.451c-1.032-0.217-1.473,1.367-0.437,1.584c2.13,0.449,4.11,1.259,5.941,2.436
			c0.892,0.574,1.717-0.848,0.83-1.42C172.543,144.051,169.734,142.215,166.109,141.451z"/>
		<path d="M160.865,149.75c-0.741-0.758-1.903,0.406-1.162,1.162c1.382,1.412,2.764,2.823,4.146,4.235
			c0.74,0.758,1.901-0.406,1.162-1.162C160.301,149.175,160.966,149.75,160.865,149.75z"/>
		<path d="M171.414,114.481c-0.906,0.543-0.081,1.965,0.83,1.419c2.605-1.562,5.1-3.287,7.496-5.153
			c0.833-0.649-0.337-1.805-1.162-1.162C178.678,109.586,175.097,112.273,171.414,114.481z"/>
		<path d="M156.676,98.541c-0.728,0.766,0.432,1.931,1.162,1.162c2.044-2.15,4.184-4.201,6.419-6.151
			c0.799-0.696-0.366-1.855-1.162-1.162C163.23,92.39,160.819,94.183,156.676,98.541z"/>
		<path d="M155.54,179.595c-2.067-0.242-4.146-0.026-6.125,0.62c-1.001,0.327-0.574,1.915,0.436,1.586
			c1.857-0.606,3.752-0.789,5.69-0.562C156.656,181.368,156.498,179.595,155.54,179.595z"/>
		<path d="M151.316,188.054c-2.289-0.8-4.717-1.08-7.128-0.809c-1.039,0.117-1.05,1.762,0,1.643
			c2.284-0.256,4.521-0.008,6.692,0.749C152.116,190.071,152.1,188.054,151.316,188.054z"/>
		<path d="M70.357,159.854c-1.058,0-1.059,1.643,0,1.643C71.415,161.498,71.416,159.854,70.357,159.854z"/>
		<path d="M65.756,165.442c-1.058,0-1.059,1.643,0,1.643C66.813,167.085,66.815,165.442,65.756,165.442z"/>
		<path d="M60.168,172.016c-1.058,0-1.059,1.643,0,1.643C61.225,173.659,61.227,172.016,60.168,172.016z"/>
		<path d="M55.566,180.89c-1.058,0-1.059,1.643,0,1.643C56.624,182.534,56.626,180.89,55.566,180.89z"/>
		<path d="M55.238,189.436c-1.058,0-1.059,1.643,0,1.643C56.295,191.08,56.297,189.436,55.238,189.436z"/>
		<path d="M57.538,196.667c-1.058,0-1.059,1.643,0,1.643C58.596,198.311,58.598,196.667,57.538,196.667z"/>
		<path d="M85.754,164.62c-1.058,0-1.059,1.643,0,1.643C86.811,166.264,86.813,164.62,85.754,164.62z"/>
	</g>
</g>
</svg>
